<?xml version="1.0" standalone="no"?>
<!DOCTYPE svg PUBLIC "-//W3C//DTD SVG 20010904//EN"
 "http://www.w3.org/TR/2001/REC-SVG-20010904/DTD/svg10.dtd">
<svg version="1.0" xmlns="http://www.w3.org/2000/svg"
 width="766.000000pt" height="766.000000pt" viewBox="0 0 766.000000 766.000000"
 preserveAspectRatio="xMidYMid meet">
<metadata>
Created by potrace 1.14, written by Peter Selinger 2001-2017
</metadata>
<g transform="translate(0.000000,766.000000) scale(0.100000,-0.100000)"
fill="#000000" stroke="none">
<path d="M3095 6032 c-18 -12 -11 -29 30 -77 47 -56 59 -74 51 -83 -3 -3 -45
6 -93 21 -48 14 -91 23 -95 21 -4 -3 -8 -18 -8 -33 0 -25 6 -29 75 -52 41 -13
75 -26 75 -29 0 -3 -46 -6 -102 -5 -100 0 -103 -1 -104 -22 -2 -35 14 -42 110
-46 48 -3 90 -7 92 -10 8 -8 -111 -40 -169 -46 -5 -1 -7 -13 -5 -28 3 -27 5
-28 63 -28 33 -1 76 4 95 11 40 13 91 8 102 -9 9 -14 0 -49 -14 -58 -11 -7
-16 -55 -8 -93 4 -21 12 -30 28 -31 18 -1 22 4 22 27 0 30 23 74 50 95 8 7 49
30 91 51 58 31 92 41 150 47 110 11 209 8 275 -8 93 -24 143 -30 234 -31 l85
-1 70 -70 c39 -39 91 -87 118 -108 26 -21 47 -42 47 -47 0 -20 -58 -100 -129
-177 -40 -45 -85 -99 -100 -121 -23 -34 -63 -85 -123 -155 -10 -11 -34 -47
-54 -81 -48 -83 -93 -146 -105 -146 -5 0 -23 -22 -40 -50 -17 -27 -36 -50 -42
-50 -6 0 -33 -24 -61 -54 -28 -30 -73 -67 -101 -82 -27 -15 -52 -30 -55 -34
-3 -4 -25 -19 -49 -34 -47 -30 -131 -112 -131 -128 0 -5 -8 -22 -18 -36 -26
-39 -68 -191 -76 -277 -2 -28 -42 -92 -92 -145 -22 -25 -57 -63 -77 -84 -20
-22 -34 -43 -31 -48 3 -4 2 -8 -3 -8 -10 0 -60 -71 -55 -78 2 -3 0 -8 -5 -11
-5 -3 -26 -37 -47 -76 -22 -38 -45 -77 -52 -85 -7 -8 -14 -21 -16 -29 -10 -44
-136 -165 -214 -206 -38 -20 -76 -43 -85 -51 -8 -8 -19 -14 -22 -14 -12 0
-139 -81 -162 -103 -12 -12 -46 -53 -76 -92 -29 -38 -56 -72 -59 -75 -13 -13
-89 -100 -125 -144 -22 -27 -49 -59 -60 -72 -11 -12 -32 -35 -46 -50 -68 -77
-166 -143 -204 -139 -29 4 -95 27 -100 35 -15 24 -43 29 -62 12 -30 -25 -34
-47 -39 -214 -6 -211 -11 -292 -23 -368 -19 -119 -2 -244 39 -288 22 -23 31
-25 66 -16 20 5 38 42 48 95 2 15 18 53 35 85 16 33 33 75 36 94 3 19 10 37
14 40 4 3 25 33 46 68 21 35 45 67 54 72 8 4 16 19 16 33 1 25 22 63 53 97 62
67 82 89 107 125 54 75 152 161 321 282 33 23 68 50 79 60 11 10 36 30 55 44
19 15 44 36 55 46 22 21 141 93 217 131 25 12 81 55 123 94 42 40 99 87 127
105 28 18 62 43 77 54 37 29 230 211 314 298 174 178 210 213 261 251 l55 41
153 -45 c84 -25 176 -48 203 -51 28 -3 64 -8 80 -11 17 -3 41 -7 55 -9 109
-14 175 -27 191 -35 18 -10 18 -12 -6 -38 -60 -63 -107 -134 -156 -232 -29
-58 -63 -122 -75 -142 -13 -20 -25 -43 -26 -50 -2 -7 -5 -15 -8 -18 -3 -3 -25
-39 -49 -80 -24 -41 -61 -97 -83 -124 -21 -27 -38 -55 -38 -62 0 -8 -4 -14
-10 -14 -5 0 -10 -7 -10 -15 0 -8 -4 -15 -10 -15 -5 0 -10 -4 -10 -10 0 -17
-34 -50 -51 -50 -17 0 -85 -106 -96 -149 -3 -14 -19 -39 -35 -56 -15 -16 -28
-37 -28 -46 0 -42 72 -89 216 -141 48 -17 129 -51 178 -76 114 -56 155 -67
233 -66 114 2 158 23 176 84 7 25 -22 69 -51 77 -38 10 -39 10 -66 12 -12 0
-37 15 -54 31 -18 17 -39 30 -47 30 -8 0 -15 3 -15 8 0 4 -10 18 -23 32 -54
60 -87 108 -75 112 9 3 9 12 0 37 -13 36 1 96 34 146 8 13 15 27 14 30 -5 15
99 143 189 234 53 54 125 130 161 171 36 40 73 82 83 92 9 10 17 20 17 23 0 3
13 20 29 38 57 62 74 82 112 134 22 29 39 57 39 63 0 5 4 10 9 10 8 0 15 15
27 60 8 27 9 110 2 110 -4 0 -9 8 -12 18 -4 10 -43 40 -89 67 -45 27 -117 73
-160 102 -86 60 -150 99 -247 151 -36 20 -78 45 -95 58 -40 29 -83 50 -142 70
-26 9 -52 19 -56 23 -7 7 170 150 221 179 54 30 67 39 106 79 22 24 45 43 49
43 5 0 22 10 39 21 16 12 57 33 91 48 62 26 114 61 172 113 17 16 38 28 48 28
9 0 38 -19 62 -41 25 -23 48 -39 51 -36 4 3 24 -5 45 -19 105 -66 449 -192
490 -179 16 5 139 172 139 189 0 2 18 35 39 73 39 67 107 249 131 350 6 29 29
79 49 110 33 52 50 84 56 106 2 4 4 9 5 12 1 3 3 8 4 13 6 24 16 70 20 92 3
14 10 41 16 60 7 19 14 52 17 73 4 32 2 37 -15 37 -16 0 -24 -12 -37 -55 -10
-30 -21 -52 -26 -49 -4 2 -4 15 0 27 5 13 12 53 15 89 5 60 3 67 -14 73 -12 4
-17 12 -13 22 7 17 -14 34 -33 26 -8 -3 -16 -20 -20 -39 -8 -41 -20 -45 -19
-6 0 20 -5 27 -20 27 -23 0 -39 -39 -49 -119 -8 -54 -28 -110 -44 -120 -6 -4
-25 7 -42 24 -17 16 -40 31 -50 31 -11 1 -30 2 -42 2 -13 1 -22 -5 -24 -16 -1
-9 3 -17 10 -17 26 0 85 -76 101 -130 9 -30 19 -62 23 -70 9 -25 9 -33 -6 -85
-13 -46 -56 -142 -92 -205 -8 -14 -14 -29 -15 -33 0 -5 -7 -14 -15 -20 -8 -7
-31 -32 -50 -57 -19 -25 -48 -60 -65 -78 -38 -41 -61 -38 -124 18 -25 22 -64
49 -88 60 -24 11 -43 24 -43 29 0 5 -9 13 -20 16 -23 7 -27 25 -5 25 8 0 31
15 50 34 19 19 47 36 62 38 28 3 29 7 39 93 4 30 13 56 24 65 15 13 31 53 34
85 1 9 29 11 66 5 34 -6 48 1 55 28 11 40 10 102 -3 145 -10 37 -61 97 -82 97
-5 0 -12 11 -16 25 -4 18 -21 33 -59 50 -28 14 -55 25 -59 25 -4 0 -17 11 -29
25 -19 22 -32 26 -103 30 -105 6 -197 -21 -249 -73 -52 -53 -68 -75 -71 -99
-1 -14 -9 -32 -17 -40 -12 -13 -17 -11 -35 14 -41 54 -68 75 -149 114 -45 21
-87 45 -95 52 -7 7 -44 27 -83 45 -130 61 -270 134 -306 158 -27 18 -55 26
-115 31 -105 9 -278 9 -334 1 -241 -37 -296 -40 -334 -17 -17 10 -51 23 -76
29 -25 6 -53 12 -62 15 -30 7 -52 23 -103 74 -49 51 -61 57 -80 43z"/>
<path d="M774 5157 c-107 -44 -173 -87 -234 -154 -64 -70 -92 -119 -124 -213
-32 -96 -37 -148 -40 -410 -4 -253 -13 -296 -79 -364 -42 -44 -94 -66 -158
-68 l-29 -1 0 -127 0 -127 49 -6 c103 -12 168 -70 203 -181 6 -17 12 -128 13
-246 5 -265 9 -311 40 -409 59 -187 184 -309 395 -385 40 -15 74 -25 75 -24 3
5 65 187 65 192 0 3 -22 17 -48 30 -84 43 -158 146 -175 246 -17 92 -19 130
-21 335 -2 121 -6 238 -11 260 -19 100 -109 235 -190 285 -19 12 -35 25 -35
29 0 4 14 15 30 25 45 26 115 101 145 153 48 87 58 149 61 393 1 124 5 245 9
270 10 77 45 177 76 219 32 45 100 98 136 107 13 4 23 9 23 13 0 3 -14 48 -31
98 -22 68 -35 93 -47 93 -9 0 -54 -15 -98 -33z"/>
<path d="M6795 5178 c-2 -7 -18 -50 -34 -95 l-30 -83 47 -24 c90 -46 144 -121
178 -247 13 -49 17 -119 20 -304 4 -268 5 -280 35 -362 37 -100 80 -149 200
-234 l22 -15 -35 -17 c-50 -24 -134 -111 -164 -168 -46 -91 -54 -150 -58 -405
-2 -132 -7 -255 -11 -274 -29 -149 -90 -240 -192 -291 l-42 -20 33 -94 c18
-52 35 -97 38 -100 8 -8 136 42 203 80 159 90 255 230 289 425 7 36 13 164 14
285 3 272 18 336 92 402 30 27 102 53 145 53 l31 0 -2 123 c-1 67 -2 124 -3
127 0 3 -18 7 -38 8 -50 4 -120 36 -151 69 -62 68 -70 112 -76 443 -4 171 -8
229 -23 285 -58 213 -175 337 -401 424 -61 24 -81 26 -87 9z"/>
</g>
</svg>
